# xmcd CD database file generated by Grip 3.3.1
# 
# Track frame offsets:
#       150
#       18186
#       36858
#       54510
#       73047
#       89777
#       109607
#       140365
#       160180
#       176944
#       195508
#       213222
#       231891
# 
# Disc length: 3332 seconds
# 
# Revision: 1
# Processed by: cddbd v1.5.2PL0 Copyright (c) Steve Scherf et al.
# Submitted via: Grip 3.3.1
# 
DISCID=b20d020d
DTITLE=Jonathan Goldman and Andi Goldman - Chakra-Brainwave Harmonizer
DYEAR=2005
DGENRE=New Age
TTITLE0=The Crown Center
TTITLE1=The Third Eye
TTITLE2=The Throat Center
TTITLE3=The Heart Center
TTITLE4=The Navel Center
TTITLE5=The Sacral Center
TTITLE6=The Root Center
TTITLE7=The Sacral Center
TTITLE8=The Navel Center
TTITLE9=The Heart Center
TTITLE10=The Throat Center
TTITLE11=The Third Eye
TTITLE12=The Crown Center
EXTD=YEAR: 2005
EXTT0=
EXTT1=
EXTT2=
EXTT3=
EXTT4=
EXTT5=
EXTT6=
EXTT7=
EXTT8=
EXTT9=
EXTT10=
EXTT11=
EXTT12=
PLAYORDER=
